<svg width="9" height="12" viewBox="0 0 9 12" fill="none" xmlns="http://www.w3.org/2000/svg">
<path d="M4.41792 11.9195C3.62077 11.2395 2.88187 10.4941 2.20896 9.69095C1.19915 8.48486 5.54698e-07 6.68865 5.54698e-07 4.97702C-0.000437387 4.10288 0.258454 3.24826 0.743912 2.52131C1.22937 1.79436 1.91957 1.22776 2.72716 0.89322C3.53476 0.558681 4.42345 0.47124 5.28076 0.641962C6.13806 0.812685 6.92546 1.2339 7.54329 1.85229C7.95463 2.2618 8.28067 2.74884 8.50254 3.28519C8.72441 3.82155 8.8377 4.39659 8.83585 4.97702C8.83585 6.68865 7.6367 8.48486 6.62689 9.69095C5.95398 10.4941 5.21508 11.2395 4.41792 11.9195ZM4.41792 3.08363C3.91576 3.08363 3.43417 3.28311 3.07909 3.63819C2.72401 3.99327 2.52453 4.47486 2.52453 4.97702C2.52453 5.47918 2.72401 5.96078 3.07909 6.31586C3.43417 6.67094 3.91576 6.87042 4.41792 6.87042C4.92008 6.87042 5.40168 6.67094 5.75676 6.31586C6.11184 5.96078 6.31132 5.47918 6.31132 4.97702C6.31132 4.47486 6.11184 3.99327 5.75676 3.63819C5.40168 3.28311 4.92008 3.08363 4.41792 3.08363Z" fill="white"/>
</svg>
